<svg xmlns="http://www.w3.org/2000/svg" id="a966dfac-cae6-4172-a83b-9370cd4b99d4" data-name="Layer 1" width="100" height="100" viewBox="0 0 1051.23312 795.86338">
    <path d="M892.537,796.43169h-394a18.5208,18.5208,0,0,1-18.5-18.5v-540a18.5208,18.5208,0,0,1,18.5-18.5h394a18.5208,18.5208,0,0,1,18.5,18.5v540A18.5208,18.5208,0,0,1,892.537,796.43169Z" transform="translate(-194.38344 -102.06831)" fill="#ccc"/>
    <path d="M886.537,784.43169h-382a12.51408,12.51408,0,0,1-12.5-12.5v-528a12.51408,12.51408,0,0,1,12.5-12.5h382a12.51408,12.51408,0,0,1,12.5,12.5v528A12.51408,12.51408,0,0,1,886.537,784.43169Z" transform="translate(-194.38344 -102.06831)" fill="#fff"/>
    <path d="M805.15871,381.20852H552.857a8.01411,8.01411,0,0,1,0-16.02823H805.15871a8.01411,8.01411,0,1,1,0,16.02823Z" transform="translate(-194.38344 -102.06831)" fill="#ccc"/>
    <path d="M838.21693,408.25615H552.857a8.01411,8.01411,0,1,1,0-16.02822h285.3599a8.01411,8.01411,0,0,1,0,16.02822Z" transform="translate(-194.38344 -102.06831)" fill="#ccc"/>
    <path d="M805.15871,502.422H552.857a8.01412,8.01412,0,0,1,0-16.02823H805.15871a8.01411,8.01411,0,1,1,0,16.02823Z" transform="translate(-194.38344 -102.06831)" fill="#6c63ff"/>
    <path d="M838.21693,529.46962H552.857a8.01412,8.01412,0,0,1,0-16.02823h285.3599a8.01411,8.01411,0,0,1,0,16.02823Z" transform="translate(-194.38344 -102.06831)" fill="#ccc"/>
    <path d="M805.15871,623.63546H552.857a8.01412,8.01412,0,0,1,0-16.02823H805.15871a8.01411,8.01411,0,1,1,0,16.02823Z" transform="translate(-194.38344 -102.06831)" fill="#ccc"/>
    <path d="M838.21693,650.68309H552.857a8.01411,8.01411,0,0,1,0-16.02823h285.3599a8.01411,8.01411,0,0,1,0,16.02823Z" transform="translate(-194.38344 -102.06831)" fill="#ccc"/>
    
</svg>