<svg xmlns="http://www.w3.org/2000/svg" id="a94ba0b8-26cf-4acb-8f4d-19fff06c7e94" data-name="Layer 1" width="300.31989" height="209.94408" viewBox="0 0 709.31989 359.94408">
    <rect id="ab2e16f2-9798-47da-b25d-769524f3c86f" data-name="Rectangle 62" x="0.3" y="19.289" width="703.57599" height="333.85901" fill="#e6e6e6"/>
    <rect id="bf81c03f-68cf-4889-8697-1102f95f97bb" data-name="Rectangle 75" x="20.41899" y="47.918" width="663.33899" height="278.54901" fill="#fff"/>
    <rect id="f065dccc-d150-492a-a09f-a7f3f89523f0" data-name="Rectangle 80" width="703.57599" height="29.89" fill="#ef4444"/>
    <circle id="bdbbf39c-df25-4682-8b85-5a6af4a1bd14" data-name="Ellipse 90" cx="22.21198" cy="17.57598" r="5.54" fill="#fff"/>
    <circle id="abcd4292-0b1f-4102-9b5e-e8bbd87baabc" data-name="Ellipse 91" cx="43.24" cy="17.57598" r="5.54" fill="#fff"/>
    <circle id="a3fb731e-8b3d-41ca-96f2-91600dc0b434" data-name="Ellipse 92" cx="64.26899" cy="17.57598" r="5.54" fill="#fff"/>
    <rect x="402.65457" y="90.26775" width="93.42307" height="7.0219" fill="#e6e6e6"/>
    <rect x="402.65457" y="110.88168" width="144.26556" height="7.02188" fill="#ef4444"/>
    <rect x="404.15457" y="130.5137" width="117.57327" height="7.02188" fill="#e6e6e6"/>
    <rect x="402.65457" y="152.05453" width="68.63736" height="7.02188" fill="#e6e6e6"/>
    <rect x="402.65457" y="173.09537" width="103.59158" height="7.02188" fill="#ef4444"/>
    <rect x="360.07397" y="88.0589" width="11.43958" height="11.43956" fill="#e6e6e6"/>
    <rect x="360.07397" y="108.67282" width="11.43958" height="11.43954" fill="#ef4444"/>
    <rect x="360.07397" y="128.30487" width="11.43958" height="11.43958" fill="#e6e6e6"/>
    <rect x="360.07397" y="149.8457" width="11.43958" height="11.43958" fill="#e6e6e6"/>
    <rect x="360.07397" y="170.88654" width="11.43958" height="11.43958" fill="#ef4444"/>
    <rect x="402.65457" y="194.26773" width="93.42307" height="7.02188" fill="#e6e6e6"/>
    <rect x="402.65457" y="214.88168" width="144.26556" height="7.02188" fill="#ef4444"/>
    <rect x="404.15457" y="234.5137" width="117.57327" height="7.02188" fill="#e6e6e6"/>
    <rect x="402.65457" y="256.05453" width="68.63736" height="7.02188" fill="#e6e6e6"/>
    <rect x="402.65457" y="277.09537" width="103.59158" height="7.02188" fill="#e6e6e6"/>
    <rect x="360.07397" y="192.0589" width="11.43958" height="11.43958" fill="#e6e6e6"/>
    <rect x="360.07397" y="212.67282" width="11.43958" height="11.43954" fill="#ef4444"/>
    <rect x="360.07397" y="232.30487" width="11.43958" height="11.43958" fill="#e6e6e6"/>
    <rect x="360.07397" y="253.8457" width="11.43958" height="11.43958" fill="#e6e6e6"/>
    <rect x="360.07397" y="274.88654" width="11.43958" height="11.43958" fill="#e6e6e6"/>
    <rect x="107.11233" y="249.34749" width="93.42307" height="7.02189" fill="#3f3d56"/>
    <rect x="94.61233" y="267.59344" width="117.57327" height="7.02189" fill="#3f3d56"/>
    <path d="M424.88435,320.79764a61.02248,61.02248,0,0,1-89.92457,53.72147l-.01185-.01186a61.00362,61.00362,0,1,1,89.93642-53.70961Z" transform="translate(-210.34006 -160.02796)" fill="#3f3d56"/>
    <circle cx="153.85516" cy="141.22599" r="16.58252" fill="#fff"/>
    <path d="M392.50991,352.1a85.47057,85.47057,0,0,1-57.23926-.22169l-.01186-.00822,12.3539-24.38615h33.16505Z" transform="translate(-210.34006 -160.02796)" fill="#fff"/>
</svg>